<svg width="201" height="32" viewBox="0 0 201 32" fill="none" xmlns="http://www.w3.org/2000/svg">
<path d="M76.0479 12.2432V9.48569C76.0479 9.35438 75.9411 9.2477 75.8096 9.2477H41.2928C41.2188 9.2477 41.1489 9.28052 41.1037 9.34207L38.8026 12.2965C38.7697 12.3376 38.7533 12.3909 38.7533 12.4442V17.3355C38.7533 17.4668 38.8601 17.5735 38.9916 17.5735H52.2313C52.4326 17.5735 52.5436 17.8033 52.4203 17.9592L51.278 19.4241C51.2328 19.4816 51.1629 19.5185 51.089 19.5185H38.9875C38.856 19.5185 38.7492 19.6252 38.7492 19.7565V22.514C38.7492 22.6453 38.856 22.752 38.9875 22.752H54.1626C54.2366 22.752 54.3064 22.7192 54.3516 22.6576L56.6527 19.7032C56.6856 19.6621 56.7021 19.6088 56.7021 19.5555V14.6642C56.7021 14.5329 56.5952 14.4262 56.4637 14.4262H43.2241C43.0227 14.4262 42.9118 14.1964 43.035 14.0405L44.1774 12.5756C44.2226 12.5181 44.2924 12.4812 44.3664 12.4812H75.8096C75.9411 12.4812 76.0479 12.3745 76.0479 12.2432Z" fill="white"/>
<path d="M81.85 22.514V12.7233C81.85 12.592 81.9569 12.4853 82.0883 12.4853H89.9286C90.0026 12.4853 90.0724 12.5181 90.1176 12.5756L91.9585 14.9268C91.9914 14.9678 92.0078 15.0212 92.0078 15.0745V22.514C92.0078 22.6453 92.1147 22.752 92.2462 22.752H95.6691C95.8006 22.752 95.9074 22.6453 95.9074 22.514V12.5674C95.9074 12.514 95.891 12.4607 95.8581 12.4196L93.4625 9.34207C93.4173 9.28463 93.3474 9.2477 93.2734 9.2477H78.1805C78.0491 9.2477 77.9422 9.35438 77.9422 9.48569V19.2764C77.9422 19.4077 77.8354 19.5144 77.7039 19.5144H64.3204C64.2464 19.5144 64.1766 19.4816 64.1314 19.42L62.989 17.9305C62.8699 17.7746 62.9808 17.5448 63.1781 17.5448H75.8014C75.9328 17.5448 76.0397 17.4381 76.0397 17.3068V14.6642C76.0397 14.5329 75.9328 14.4262 75.8014 14.4262H58.9456C58.8142 14.4262 58.7073 14.5329 58.7073 14.6642V19.5555C58.7073 19.6088 58.7238 19.6621 58.7566 19.7032L61.0577 22.6576C61.1029 22.7151 61.1728 22.752 61.2468 22.752H81.6035C81.735 22.752 81.8418 22.6453 81.8418 22.514H81.85Z" fill="white"/>
<path d="M158.49 9.2477H141.305C141.174 9.2477 141.067 9.35425 141.067 9.48569V12.2432C141.067 12.3746 141.174 12.4812 141.305 12.4812H158.49C158.621 12.4812 158.728 12.3746 158.728 12.2432V9.48569C158.728 9.35425 158.621 9.2477 158.49 9.2477Z" fill="white"/>
<path d="M158.255 19.5185H146.68C146.606 19.5185 146.536 19.4857 146.491 19.4241L145.349 17.9346C145.229 17.7787 145.34 17.5489 145.538 17.5489H158.49C158.621 17.5489 158.728 17.4422 158.728 17.3109V14.6683C158.728 14.537 158.621 14.4303 158.49 14.4303H141.305C141.174 14.4303 141.067 14.537 141.067 14.6683V19.5596C141.067 19.6129 141.083 19.6662 141.116 19.7073L143.417 22.6617C143.463 22.7192 143.532 22.7561 143.606 22.7561H160.4C160.602 22.7561 160.713 22.5263 160.589 22.3704L158.444 19.6129C158.399 19.5555 158.329 19.5185 158.255 19.5185Z" fill="white"/>
<path d="M136.53 9.2477H121.438C121.306 9.2477 121.199 9.35438 121.199 9.48569V22.5099C121.199 22.6412 121.306 22.7479 121.438 22.7479H124.86C124.992 22.7479 125.099 22.6412 125.099 22.5099V12.7192C125.099 12.5879 125.206 12.4812 125.337 12.4812H133.177C133.251 12.4812 133.321 12.514 133.366 12.5715L135.207 14.9227C135.24 14.9637 135.257 15.0171 135.257 15.0704V22.5099C135.257 22.6412 135.363 22.7479 135.495 22.7479H138.918C139.049 22.7479 139.156 22.6412 139.156 22.5099V12.5632C139.156 12.5099 139.14 12.4566 139.107 12.4155L136.711 9.33797C136.666 9.28052 136.596 9.24359 136.522 9.24359L136.53 9.2477Z" fill="white"/>
<path d="M95.7554 9.46518L98.0359 12.3909C98.0811 12.4484 98.151 12.4853 98.225 12.4853H102.371C102.503 12.4853 102.609 12.592 102.609 12.7233V22.514C102.609 22.6453 102.716 22.752 102.848 22.752H106.271C106.402 22.752 106.509 22.6453 106.509 22.514V12.7233C106.509 12.592 106.616 12.4853 106.747 12.4853H113.293C113.425 12.4853 113.532 12.3786 113.532 12.2473V9.4898C113.532 9.35849 113.425 9.2518 113.293 9.2518H95.8581C95.7471 9.2518 95.6855 9.379 95.7513 9.46928L95.7554 9.46518Z" fill="white"/>
<path d="M119.062 9.2477H115.635C115.504 9.2477 115.397 9.35425 115.397 9.48569V22.514C115.397 22.6455 115.504 22.752 115.635 22.752H119.062C119.194 22.752 119.301 22.6455 119.301 22.514V9.48569C119.301 9.35425 119.194 9.2477 119.062 9.2477Z" fill="white"/>
<path d="M178.082 19.5185H166.958C166.884 19.5185 166.815 19.4857 166.769 19.4241L164.941 17.077C164.908 17.036 164.891 16.9826 164.891 16.9293V9.48569C164.891 9.35438 164.785 9.2477 164.653 9.2477H161.23C161.099 9.2477 160.992 9.35438 160.992 9.48569V19.5596C160.992 19.6129 161.008 19.6662 161.041 19.7073L163.342 22.6617C163.388 22.7192 163.457 22.7561 163.531 22.7561H178.086C178.217 22.7561 178.324 22.6494 178.324 22.5181V19.7606C178.324 19.6293 178.217 19.5226 178.086 19.5226L178.082 19.5185Z" fill="white"/>
<path d="M198.032 12.3006V9.43235C198.032 9.32976 197.95 9.2477 197.847 9.2477H182.594C182.536 9.2477 182.483 9.27232 182.45 9.31745L180.12 12.3088C180.096 12.3417 180.083 12.3786 180.083 12.4196V17.3889C180.083 17.4914 180.165 17.5735 180.268 17.5735H193.68C193.832 17.5735 193.919 17.75 193.824 17.869L192.596 19.4488C192.563 19.4939 192.509 19.5185 192.452 19.5185H180.272C180.17 19.5185 180.087 19.6006 180.087 19.7032V22.5715C180.087 22.674 180.17 22.7561 180.272 22.7561H195.525C195.583 22.7561 195.636 22.7315 195.669 22.6863L197.999 19.695C198.024 19.6621 198.036 19.6252 198.036 19.5842V14.615C198.036 14.5124 197.954 14.4303 197.851 14.4303H184.439C184.287 14.4303 184.201 14.2538 184.295 14.1349L185.524 12.555C185.557 12.5099 185.61 12.4853 185.668 12.4853H197.847C197.95 12.4853 198.032 12.4032 198.032 12.3006Z" fill="white"/>
<path d="M29.6023 1H0.439679C0.197239 1 0 1.19696 0 1.43906V30.5609C0 30.803 0.197239 31 0.439679 31H29.6023C29.8447 31 30.042 30.803 30.042 30.5609V1.43906C30.042 1.19696 29.8447 1 29.6023 1ZM11.5837 9.17809L12.3439 7.85679C12.4096 7.7419 12.537 7.66804 12.6685 7.66804H17.3694C17.505 7.66804 17.6282 7.7419 17.694 7.85679L18.4542 9.17809C18.5199 9.29298 18.5199 9.4366 18.4542 9.5556L17.0036 12.0546L16.1037 13.6098C16.038 13.7247 15.9106 13.7985 15.775 13.7985H14.2546C14.119 13.7985 13.9957 13.7288 13.9259 13.6098L13.026 12.0546L11.5755 9.5556C11.5097 9.44071 11.5097 9.29709 11.5755 9.17809H11.5837ZM23.418 13.9545L19.8759 20.0644L17.6775 23.8683C17.5132 24.1514 17.2091 24.3279 16.8804 24.3279H13.1616C12.8329 24.3279 12.5288 24.1514 12.3644 23.8683L10.166 20.0644L6.62394 13.9545C6.45958 13.6713 6.45958 13.3184 6.62394 13.0353L8.48127 9.81001C8.64564 9.52688 8.94972 9.35043 9.27845 9.35043H10.1208L9.751 9.98646L9.44692 10.5158C9.33598 10.7046 9.34009 10.9384 9.44692 11.1272L11.7974 15.1814L13.2561 17.705C13.367 17.8937 13.5684 18.0086 13.7862 18.0086H16.2558C16.4736 18.0086 16.6749 17.8937 16.7859 17.705L18.2446 15.1814L20.595 11.1272C20.706 10.9384 20.706 10.7046 20.595 10.5158L20.291 9.98646L19.9211 9.34633H20.7635C21.0922 9.34633 21.3963 9.52277 21.5607 9.81001L23.418 13.0353C23.5824 13.3184 23.5824 13.6713 23.418 13.9545Z" fill="#E5062F"/>
</svg>
